#!OML:ASF I:\Actors\actors\Patient Classification 2\Patient 1\Session 1\actor1.ASF
:FULLY-SPECIFIED
:DEGREES
716
root -0.769527 18.6348 5.74604 -2.42497 -1.6205 -2.53222
lowerback 3.96245 0.180591 1.29187
upperback 0.28882 0.314034 0.793621
thorax -1.92216 0.148842 0.0723168
lowerneck -13.6038 1.10649 4.73399
upperneck 22.8218 1.67044 -5.11129
head 9.52261 0.617954 -2.36908
rclavicle -7.07976e-015 -3.23025e-015
rhumerus -50.8579 -6.78383 -82.2316
rradius 39.9298
rwrist 16.9056
rhand -6.62005 -30.114
rfingers 7.12502
rthumb 19.2362 -59.1827
lclavicle -7.07976e-015 -3.23025e-015
lhumerus -40.1812 -3.42412 93.8266
lradius 38.868
lwrist -15.656
lhand 1.76885 -24.5131
lfingers 7.12502
lthumb 27.2835 3.53306
rfemur 11.3012 3.20168 16.709
rtibia -5.40694e-014
rfoot -16.4285 -9.10556
rtoes -10.154
lfemur -1.50058 -8.96697 -12.5278
ltibia 22.2259
lfoot -22.4486 12.688
ltoes -55.9195
717
root -0.765693 18.6346 5.74988 -2.43182 -1.72475 -2.4872
lowerback 3.9668 0.157057 1.19671
upperback 0.279871 0.27843 0.783265
thorax -1.93446 0.131754 0.116975
lowerneck -13.6666 1.10978 4.60405
upperneck 23.1437 1.63939 -4.812
head 9.64326 0.624568 -2.25145
rclavicle -1.33421e-014 4.47266e-016
rhumerus -50.1902 -5.9777 -82.4665
rradius 40.2573
rwrist 16.7397
rhand -5.88907 -29.4873
rfingers 7.12502
rthumb 19.939 -58.4844
lclavicle -1.33421e-014 4.47266e-016
lhumerus -40.1946 -3.52965 93.9107
lradius 38.7528
lwrist -15.739
lhand 1.7749 -24.5042
lfingers 7.12502
lthumb 27.2893 3.54107
rfemur 11.3047 3.30949 16.6587
rtibia -7.95139e-015
rfoot -16.435 -9.1285
rtoes -10.3937
lfemur -1.43148 -8.88258 -12.5886
ltibia 22.1858
lfoot -22.4573 12.6888
ltoes -55.8276
718
root -0.761023 18.6338 5.75422 -2.43194 -1.85183 -2.46273
lowerback 3.96668 0.132118 1.13793
upperback 0.252316 0.242788 0.775925
thorax -1.96313 0.114257 0.144353
lowerneck -13.7164 1.12054 4.38981
upperneck 23.4887 1.61655 -4.42238
head 9.76954 0.638214 -2.08655
rclavicle 4.92924e-015 -1.78409e-014
rhumerus -49.5589 -5.30663 -82.6508
rradius 40.5697
rwrist 16.4547
rhand -5.44629 -29.035
rfingers 7.12502
rthumb 20.3646 -57.9872
lclavicle 4.92924e-015 -1.78409e-014
lhumerus -40.2221 -3.5979 93.9777
lradius 38.6439
lwrist -15.8222
lhand 2.02511 -24.4327
lfingers 7.12502
lthumb 27.5286 3.57461
rfemur 11.2996 3.43917 16.6274
rtibia -3.81667e-014
rfoot -16.4278 -9.12168
rtoes -10.4262
lfemur -1.354 -8.81948 -12.6309
ltibia 22.1396
lfoot -22.5252 12.6568
ltoes -55.629
719
root -0.755248 18.6333 5.75751 -2.41241 -1.99685 -2.39863
lowerback 3.95986 0.158667 1.09303
upperback 0.209042 0.275587 0.726467
thorax -2.0035 0.130566 0.116909
lowerneck -13.6865 1.08435 4.26405
upperneck 23.7743 1.51691 -4.07678
head 9.85739 0.620406 -1.96013
rclavicle 6.80605e-015 2.78299e-015
rhumerus -48.9543 -4.93865 -82.7454
rradius 40.8608
rwrist 16.1302
rhand -5.26013 -28.8451
rfingers 7.12502
rthumb 20.5435 -57.7781
lclavicle 6.80605e-015 2.78299e-015
lhumerus -40.2671 -3.76878 94.0455
lradius 38.5582
lwrist -15.9596
lhand 2.33303 -24.2452
lfingers 7.12502
lthumb 27.823 3.71489
rfemur 11.265 3.58888 16.5448
rtibia 6.36111e-015
rfoot -16.4424 -9.10844
rtoes -10.2548
lfemur -1.32847 -8.74476 -12.7216
ltibia 22.1495
lfoot -22.6065 12.6748
ltoes -55.5974
720
root -0.749657 18.634 5.76009 -2.3757 -2.16576 -2.3168
lowerback 3.9387 0.220314 1.04108
upperback 0.162599 0.354144 0.654677
thorax -2.03871 0.169699 0.0679548
lowerneck -13.6177 1.00299 4.28149
upperneck 23.9972 1.35502 -3.88031
head 9.91509 0.570362 -1.91714
rclavicle -9.66668e-015 1.88845e-015
rhumerus -48.352 -4.73892 -82.8148
rradius 41.1672
rwrist 15.6955
rhand -5.31769 -28.9555
rfingers 7.12502
rthumb 20.4881 -57.8945
lclavicle -9.66668e-015 1.88845e-015
lhumerus -40.2896 -4.02671 94.1088
lradius 38.4253
lwrist -16.1743
lhand 2.4551 -24.1353
lfingers 7.12502
lthumb 27.9397 3.80584
rfemur 11.2039 3.76192 16.444
rtibia 3.97569e-014
rfoot -16.4512 -9.12196
rtoes -10.1767
lfemur -1.3686 -8.54 -12.814
ltibia 22.2268
lfoot -22.5948 12.688
ltoes -55.6709
721
root -0.744825 18.6377 5.75655 -2.16311 -2.51437 -2.68109
lowerback 3.8554 0.297805 1.41112
upperback 0.0650296 0.475684 0.74653
thorax -2.08931 0.226636 -0.0518165
lowerneck -13.6691 0.930309 4.24739
upperneck 24.2778 1.23929 -3.78342
head 10.0193 0.524882 -1.89564
rclavicle -1.47683e-014 -6.95746e-016
rhumerus -47.6972 -4.58163 -82.824
rradius 41.4269
rwrist 15.2803
rhand -5.6823 -28.9351
rfingers 7.12502
rthumb 20.1377 -57.9114
lclavicle -1.47683e-014 -6.95746e-016
lhumerus -40.2614 -4.08679 94.1567
lradius 38.2561
lwrist -16.4279
lhand 2.45325 -24.2255
lfingers 7.12502
lthumb 27.938 3.71595
rfemur 10.9118 4.07575 16.8538
rtibia -1.74931e-014
rfoot -16.3994 -9.17333
rtoes -10.1671
lfemur -1.54888 -8.37703 -12.3985
ltibia 22.277
lfoot -22.646 12.8807
ltoes -55.6932
722
root -0.741064 18.6406 5.75274 -1.95897 -2.84559 -3.12888
lowerback 3.80052 0.359621 1.84647
upperback -0.0193491 0.580365 0.879742
thorax -2.1413 0.274316 -0.164767
lowerneck -13.7469 0.880109 4.19415
upperneck 24.5169 1.16944 -3.73157
head 10.1165 0.493498 -1.88058
rclavicle -8.25422e-015 -7.15625e-015
rhumerus -46.998 -4.5105 -82.7907
rradius 41.7864
rwrist 14.5032
rhand -5.70137 -29.1085
rfingers 7.12502
rthumb 20.1194 -58.0867
lclavicle -8.25422e-015 -7.15625e-015
lhumerus -40.2035 -3.98973 94.1734
lradius 38.0916
lwrist -16.6351
lhand 2.41711 -24.4335
lfingers 7.12502
lthumb 27.9034 3.51358
rfemur 10.6385 4.3709 17.3609
rtibia 4.77083e-015
rfoot -16.3463 -9.23732
rtoes -10.1542
lfemur -1.68816 -8.34339 -11.9082
ltibia 22.2906
lfoot -22.7566 13.1511
ltoes -55.6915
723
root -0.738733 18.6383 5.76107 -2.10246 -2.81496 -2.80255
lowerback 3.85959 0.328784 1.46249
upperback 0.0285757 0.520907 0.793312
thorax -2.12862 0.248539 -0.0352671
lowerneck -13.7338 0.82838 4.19228
upperneck 24.6267 1.08827 -3.6915
head 10.1496 0.460736 -1.87791
rclavicle 1.10481e-014 -1.78906e-015
rhumerus -46.3 -4.46982 -82.806
rradius 42.3121
rwrist 13.331
rhand -5.40513 -29.4573
rfingers 7.12502
rthumb 20.4041 -58.4053
lclavicle 1.10481e-014 -1.78906e-015
lhumerus -40.1595 -3.9233 94.1667
lradius 37.996
lwrist -16.7379
lhand 2.3871 -24.4367
lfingers 7.12502
lthumb 27.8747 3.51499
rfemur 10.8193 4.3653 16.9991
rtibia -4.77083e-014
rfoot -16.3743 -9.24169
rtoes -10.2577
lfemur -1.52151 -8.30083 -12.3042
ltibia 22.2905
lfoot -22.7649 13.089
ltoes -55.7086
724
root -0.736569 18.6359 5.77036 -2.26373 -2.78826 -2.43662
lowerback 3.91228 0.30492 1.04281
upperback 0.0866114 0.468319 0.694412
thorax -2.10155 0.226402 0.10127
lowerneck -13.7373 0.765693 4.10993
upperneck 24.7385 0.983479 -3.54732
head 10.185 0.4216 -1.82763
rclavicle -4.15429e-016 -1.88845e-015
rhumerus -45.6887 -4.47506 -82.8611
rradius 42.7322
rwrist 12.6498
rhand -5.73831 -29.0653
rfingers 7.12502
rthumb 20.0839 -58.0473
lclavicle -4.15429e-016 -1.88845e-015
lhumerus -40.1546 -3.88799 94.1685
lradius 37.9996
lwrist -16.7793
lhand 2.33702 -24.294
lfingers 7.12502
lthumb 27.8269 3.66546
rfemur 11.0202 4.36924 16.5907
rtibia -1.11319e-014
rfoot -16.4139 -9.22069
rtoes -10.2725
lfemur -1.2986 -8.28574 -12.752
ltibia 22.2279
lfoot -22.7673 13.0264
ltoes -55.7218
725
root -0.734745 18.6362 5.77436 -2.26031 -2.94623 -2.4137
lowerback 3.91185 0.344618 0.999652
upperback 0.0751345 0.519143 0.681602
thorax -2.11306 0.252062 0.109415
lowerneck -13.7345 0.706721 4.02645
upperneck 24.8306 0.880869 -3.39129
head 10.2125 0.384862 -1.77233
rclavicle 3.69072e-015 5.76476e-015
rhumerus -45.17 -4.53659 -82.93
rradius 43.028
rwrist 12.3694
rhand -6.27122 -28.6819
rfingers 7.12502
rthumb 19.5716 -57.7168
lclavicle 3.69072e-015 5.76476e-015
lhumerus -40.196 -3.86735 94.1657
lradius 38.0509
lwrist -16.808
lhand 2.29628 -24.269
lfingers 7.12502
lthumb 27.7879 3.69674
rfemur 11.0051 4.52793 16.5698
rtibia -1.11319e-014
rfoot -16.4484 -9.21398
rtoes -10.1411
lfemur -1.18059 -8.26706 -12.8027
ltibia 22.101
lfoot -22.7876 13.1534
ltoes -55.6876
726
root -0.733741 18.6367 5.77785 -2.23898 -3.06529 -2.33207
lowerback 3.92248 0.370036 0.888661
upperback 0.040584 0.547973 0.654467
thorax -2.15511 0.267244 0.141952
lowerneck -13.6735 0.664573 4.00327
upperneck 24.885 0.813739 -3.33068
head 10.2172 0.359308 -1.756
rclavicle -2.68282e-015 1.37161e-014
rhumerus -44.6754 -4.67993 -82.9213
rradius 43.251
rwrist 12.3355
rhand -6.58166 -28.8124
rfingers 7.12502
rthumb 19.2731 -57.8773
lclavicle -2.68282e-015 1.37161e-014
lhumerus -40.2928 -3.86575 94.1698
lradius 38.1342
lwrist -16.673
lhand 2.25608 -24.3865
lfingers 7.12502
lthumb 27.7495 3.58544
rfemur 10.97 4.6491 16.4853
rtibia -3.49861e-014
rfoot -16.4971 -9.23432
rtoes -10.2781
lfemur -1.11802 -8.19306 -12.8982
ltibia 22.0108
lfoot -22.8041 13.2291
ltoes -55.6074
727
root -0.733106 18.6365 5.78222 -2.21695 -3.1689 -2.26108
lowerback 3.92184 0.392116 0.788424
upperback 0.0185376 0.572625 0.633771
thorax -2.17806 0.280393 0.175416
lowerneck -13.6818 0.63189 3.85402
upperneck 25.0109 0.745145 -3.10119
head 10.2607 0.340812 -1.65945
rclavicle -1.37208e-015 -4.07509e-015
rhumerus -44.2234 -4.80138 -82.9571
rradius 43.512
rwrist 12.2345
rhand -7.34748 -29.0118
rfingers 7.12502
rthumb 18.5366 -58.1486
lclavicle -1.37208e-015 -4.07509e-015
lhumerus -40.3711 -3.92347 94.2163
lradius 38.2134
lwrist -16.3574
lhand 2.19188 -24.5253
lfingers 7.12502
lthumb 27.6881 3.45653
rfemur 10.9374 4.75396 16.4134
rtibia 1.59028e-015
rfoot -16.5417 -9.24774
rtoes -10.1997
lfemur -1.07866 -8.17037 -12.9877
ltibia 21.9685
lfoot -22.8801 13.2996
ltoes -55.5512
